<svg width="200" height="24" viewBox="0 0 200 24" fill="none" xmlns="http://www.w3.org/2000/svg">
<path d="M11.5264 0.320856V23.6791H7.14605V0.320856H11.5264ZM18.7524 0.320856V3.80214H0V0.320856H18.7524Z" fill="white"/>
<path d="M40.0786 11.4064V12.6096C40.0786 14.3743 39.8441 15.9626 39.3752 17.3743C38.9062 18.7754 38.2401 19.9679 37.3769 20.9519C36.5136 21.9358 35.4851 22.6898 34.2914 23.2139C33.0978 23.738 31.7709 24 30.3107 24C28.8719 24 27.5504 23.738 26.346 23.2139C25.1524 22.6898 24.1186 21.9358 23.2446 20.9519C22.3707 19.9679 21.6939 18.7754 21.2143 17.3743C20.7347 15.9626 20.4949 14.3743 20.4949 12.6096V11.4064C20.4949 9.63102 20.7347 8.04278 21.2143 6.64171C21.6939 5.24064 22.3654 4.04813 23.2286 3.06417C24.0919 2.06952 25.1204 1.31016 26.3141 0.786096C27.5184 0.262032 28.84 0 30.2788 0C31.7389 0 33.0658 0.262032 34.2595 0.786096C35.4531 1.31016 36.4816 2.06952 37.3449 3.06417C38.2188 4.04813 38.8903 5.24064 39.3592 6.64171C39.8388 8.04278 40.0786 9.63102 40.0786 11.4064ZM35.6343 12.6096V11.3743C35.6343 10.1016 35.5171 8.98396 35.2826 8.02139C35.0481 7.04813 34.7017 6.22995 34.2435 5.56684C33.7852 4.90374 33.2203 4.40642 32.5489 4.07487C31.8774 3.73262 31.1207 3.5615 30.2788 3.5615C29.4261 3.5615 28.6694 3.73262 28.0087 4.07487C27.3585 4.40642 26.8043 4.90374 26.346 5.56684C25.8878 6.22995 25.5361 7.04813 25.2909 8.02139C25.0565 8.98396 24.9392 10.1016 24.9392 11.3743V12.6096C24.9392 13.8717 25.0565 14.9893 25.2909 15.9626C25.5361 16.9358 25.8878 17.7594 26.346 18.4332C26.815 19.0963 27.3799 19.5989 28.0406 19.9412C28.7014 20.2834 29.4581 20.4545 30.3107 20.4545C31.1634 20.4545 31.9201 20.2834 32.5808 19.9412C33.2416 19.5989 33.7958 19.0963 34.2435 18.4332C34.7017 17.7594 35.0481 16.9358 35.2826 15.9626C35.5171 14.9893 35.6343 13.8717 35.6343 12.6096Z" fill="white"/>
<path d="M51.8928 12V15.3529H43.148V12H51.8928Z" fill="white"/>
<path d="M62.7797 23.6791H57.7599L57.7918 20.2139H62.7797C64.1332 20.2139 65.2683 19.9144 66.1848 19.3155C67.1014 18.7059 67.7942 17.8342 68.2631 16.7005C68.7321 15.5562 68.9665 14.1872 68.9665 12.5936V11.3904C68.9665 10.1604 68.8333 9.07487 68.5669 8.13369C68.3004 7.19251 67.9061 6.40107 67.3839 5.75936C66.8723 5.11765 66.2381 4.63102 65.4814 4.29947C64.7247 3.96791 63.8561 3.80214 62.8756 3.80214H57.6639V0.320856H62.8756C64.4316 0.320856 65.8491 0.582888 67.1281 1.10695C68.4177 1.63102 69.5314 2.38503 70.4693 3.36898C71.4178 4.34225 72.1425 5.50802 72.6435 6.86631C73.155 8.2246 73.4108 9.74332 73.4108 11.4225V12.5936C73.4108 14.262 73.155 15.7807 72.6435 17.1497C72.1425 18.508 71.4178 19.6738 70.4693 20.6471C69.5314 21.6203 68.4123 22.369 67.1121 22.893C65.8118 23.4171 64.3677 23.6791 62.7797 23.6791ZM60.2218 0.320856V23.6791H55.8255V0.320856H60.2218Z" fill="white"/>
<path d="M96 11.4064V12.6096C96 14.3743 95.7655 15.9626 95.2966 17.3743C94.8276 18.7754 94.1615 19.9679 93.2983 20.9519C92.435 21.9358 91.4065 22.6898 90.2128 23.2139C89.0191 23.738 87.6923 24 86.2321 24C84.7933 24 83.4718 23.738 82.2674 23.2139C81.0738 22.6898 80.04 21.9358 79.166 20.9519C78.2921 19.9679 77.6153 18.7754 77.1357 17.3743C76.6561 15.9626 76.4163 14.3743 76.4163 12.6096V11.4064C76.4163 9.63102 76.6561 8.04278 77.1357 6.64171C77.6153 5.24064 78.2868 4.04813 79.15 3.06417C80.0133 2.06952 81.0418 1.31016 82.2355 0.786096C83.4398 0.262032 84.7614 0 86.2002 0C87.6603 0 88.9872 0.262032 90.1809 0.786096C91.3745 1.31016 92.403 2.06952 93.2663 3.06417C94.1402 4.04813 94.8117 5.24064 95.2806 6.64171C95.7602 8.04278 96 9.63102 96 11.4064ZM91.5557 12.6096V11.3743C91.5557 10.1016 91.4385 8.98396 91.204 8.02139C90.9695 7.04813 90.6231 6.22995 90.1649 5.56684C89.7066 4.90374 89.1417 4.40642 88.4703 4.07487C87.7988 3.73262 87.0421 3.5615 86.2002 3.5615C85.3475 3.5615 84.5908 3.73262 83.9301 4.07487C83.2799 4.40642 82.7257 4.90374 82.2674 5.56684C81.8092 6.22995 81.4575 7.04813 81.2123 8.02139C80.9779 8.98396 80.8606 10.1016 80.8606 11.3743V12.6096C80.8606 13.8717 80.9779 14.9893 81.2123 15.9626C81.4575 16.9358 81.8092 17.7594 82.2674 18.4332C82.7364 19.0963 83.3013 19.5989 83.962 19.9412C84.6228 20.2834 85.3795 20.4545 86.2321 20.4545C87.0848 20.4545 87.8415 20.2834 88.5023 19.9412C89.163 19.5989 89.7172 19.0963 90.1649 18.4332C90.6231 17.7594 90.9695 16.9358 91.204 15.9626C91.4385 14.9893 91.5557 13.8717 91.5557 12.6096Z" fill="white"/>
<path d="M106.975 15.4215L118.935 3.46658L124.53 9.06126L112.569 21.0162L106.975 15.4215Z" fill="#FFCE31"/>
<path d="M126.987 1.72467L126.275 1.01231C124.925 -0.337436 122.75 -0.337436 121.362 1.01231L118.925 3.44934L124.55 9.07327L126.987 6.63623C128.337 5.28649 128.337 3.07441 126.987 1.72467Z" fill="#ED4C5C"/>
<path d="M117.418 4.9903L118.956 3.45235L124.551 9.04628L123.014 10.5839L117.418 4.9903Z" fill="#93A2AA"/>
<path d="M118.001 5.5733L119.539 4.03572L123.941 8.43663L122.403 9.97383L118.001 5.5733Z" fill="#C7D3D8"/>
<path d="M106.962 15.4095L104.524 21.7833L106.212 23.4705L112.587 21.0335L106.962 15.4095Z" fill="#FED0AC"/>
<path d="M104.112 22.9081C103.775 23.8079 104.225 24.2204 105.125 23.8829L108.2 22.7207L105.312 19.8337L104.112 22.9081Z" fill="#87D53A"/>
<path d="M106.958 15.4377L117.406 4.99217L119.262 6.84807L108.815 17.2936L106.958 15.4377Z" fill="#FFDF85"/>
<path d="M110.714 19.1746L121.162 8.72908L123.018 10.585L112.57 21.0305L110.714 19.1746Z" fill="#FF8736"/>
<path d="M150.692 20.2139V23.6791H139.053V20.2139H150.692ZM140.373 0.320856V23.6791H136V0.320856H140.373Z" fill="white"/>
<path d="M158.277 0.320856V23.6791H153.904V0.320856H158.277Z" fill="white"/>
<path d="M175.116 17.615C175.116 17.1658 175.047 16.7647 174.909 16.4118C174.782 16.0481 174.543 15.7219 174.193 15.4332C173.854 15.1337 173.372 14.8449 172.746 14.5668C172.132 14.2781 171.336 13.9786 170.361 13.6684C169.28 13.3262 168.273 12.9412 167.34 12.5134C166.407 12.0856 165.586 11.5882 164.876 11.0214C164.176 10.4545 163.63 9.80214 163.238 9.06417C162.846 8.31551 162.649 7.4492 162.649 6.46524C162.649 5.50267 162.851 4.62567 163.254 3.83422C163.667 3.04278 164.25 2.36364 165.003 1.79679C165.755 1.21925 166.64 0.775401 167.658 0.465241C168.686 0.15508 169.821 0 171.061 0C172.778 0 174.262 0.315508 175.513 0.946524C176.774 1.57754 177.75 2.43316 178.439 3.51337C179.128 4.59358 179.472 5.80749 179.472 7.15508H175.116C175.116 6.42781 174.962 5.7861 174.654 5.22995C174.358 4.6738 173.902 4.23529 173.287 3.91444C172.683 3.59358 171.92 3.43316 170.997 3.43316C170.107 3.43316 169.365 3.56684 168.771 3.83422C168.188 4.1016 167.748 4.46524 167.451 4.92513C167.165 5.38503 167.022 5.8984 167.022 6.46524C167.022 6.89305 167.123 7.27808 167.324 7.62032C167.526 7.95187 167.828 8.26738 168.231 8.56684C168.633 8.85562 169.132 9.12834 169.725 9.38503C170.329 9.63102 171.029 9.87701 171.824 10.123C173.096 10.508 174.209 10.9358 175.163 11.4064C176.128 11.877 176.928 12.4118 177.564 13.0107C178.211 13.6096 178.693 14.2834 179.011 15.0321C179.34 15.7807 179.504 16.631 179.504 17.5829C179.504 18.5882 179.308 19.4866 178.916 20.2781C178.524 21.0695 177.962 21.7433 177.23 22.2995C176.499 22.8556 175.619 23.2781 174.591 23.5668C173.573 23.8556 172.434 24 171.172 24C170.049 24 168.935 23.8503 167.833 23.5508C166.741 23.2406 165.75 22.7807 164.86 22.1711C163.969 21.5508 163.259 20.7701 162.729 19.8289C162.199 18.877 161.934 17.7647 161.934 16.492H166.322C166.322 17.2299 166.439 17.861 166.672 18.385C166.916 18.8984 167.255 19.3209 167.69 19.6524C168.135 19.9733 168.655 20.2086 169.248 20.3583C169.842 20.508 170.483 20.5829 171.172 20.5829C172.063 20.5829 172.794 20.4599 173.366 20.2139C173.949 19.9572 174.384 19.6043 174.67 19.1551C174.967 18.7059 175.116 18.1925 175.116 17.615Z" fill="white"/>
<path d="M192.813 0.320856V23.6791H188.456V0.320856H192.813ZM200 0.320856V3.80214H181.349V0.320856H200Z" fill="white"/>
</svg>
