<svg width="108" height="12" viewBox="0 0 108 12" fill="none" xmlns="http://www.w3.org/2000/svg">
<path d="M5.7632 0.160428V11.8396H3.57302V0.160428H5.7632ZM9.37619 0.160428V1.90107H0V0.160428H9.37619Z" fill="white"/>
<path d="M20.0393 5.70321V6.30481C20.0393 7.18717 19.9221 7.98128 19.6876 8.68717C19.4531 9.3877 19.1201 9.98396 18.6884 10.4759C18.2568 10.9679 17.7425 11.3449 17.1457 11.607C16.5489 11.869 15.8854 12 15.1554 12C14.436 12 13.7752 11.869 13.173 11.607C12.5762 11.3449 12.0593 10.9679 11.6223 10.4759C11.1853 9.98396 10.847 9.3877 10.6072 8.68717C10.3674 7.98128 10.2475 7.18717 10.2475 6.30481V5.70321C10.2475 4.81551 10.3674 4.02139 10.6072 3.32086C10.847 2.62032 11.1827 2.02406 11.6143 1.53209C12.046 1.03476 12.5602 0.65508 13.157 0.393048C13.7592 0.131016 14.42 0 15.1394 0C15.8694 0 16.5329 0.131016 17.1297 0.393048C17.7266 0.65508 18.2408 1.03476 18.6724 1.53209C19.1094 2.02406 19.4451 2.62032 19.6796 3.32086C19.9194 4.02139 20.0393 4.81551 20.0393 5.70321ZM17.8172 6.30481V5.68717C17.8172 5.0508 17.7585 4.49198 17.6413 4.0107C17.5241 3.52406 17.3509 3.11497 17.1217 2.78342C16.8926 2.45187 16.6102 2.20321 16.2744 2.03743C15.9387 1.86631 15.5604 1.78075 15.1394 1.78075C14.7131 1.78075 14.3347 1.86631 14.0043 2.03743C13.6793 2.20321 13.4022 2.45187 13.173 2.78342C12.9439 3.11497 12.768 3.52406 12.6455 4.0107C12.5282 4.49198 12.4696 5.0508 12.4696 5.68717V6.30481C12.4696 6.93583 12.5282 7.49465 12.6455 7.98128C12.768 8.46791 12.9439 8.87968 13.173 9.21658C13.4075 9.54813 13.6899 9.79947 14.0203 9.97059C14.3507 10.1417 14.7291 10.2273 15.1554 10.2273C15.5817 10.2273 15.96 10.1417 16.2904 9.97059C16.6208 9.79947 16.8979 9.54813 17.1217 9.21658C17.3509 8.87968 17.5241 8.46791 17.6413 7.98128C17.7585 7.49465 17.8172 6.93583 17.8172 6.30481Z" fill="white"/>
<path d="M25.9464 6V7.67647H21.574V6H25.9464Z" fill="white"/>
<path d="M31.3898 11.8396H28.8799L28.8959 10.107H31.3898C32.0666 10.107 32.6341 9.95722 33.0924 9.65775C33.5507 9.35294 33.8971 8.91711 34.1316 8.35027C34.366 7.77808 34.4833 7.09358 34.4833 6.29679V5.69519C34.4833 5.08021 34.4167 4.53743 34.2834 4.06684C34.1502 3.59626 33.953 3.20053 33.6919 2.87968C33.4361 2.55882 33.1191 2.31551 32.7407 2.14973C32.3624 1.98396 31.9281 1.90107 31.4378 1.90107H28.832V0.160428H31.4378C32.2158 0.160428 32.9246 0.291444 33.564 0.553476C34.2088 0.815508 34.7657 1.19251 35.2346 1.68449C35.7089 2.17112 36.0713 2.75401 36.3217 3.43316C36.5775 4.1123 36.7054 4.87166 36.7054 5.71123V6.29679C36.7054 7.13102 36.5775 7.89037 36.3217 8.57487C36.0713 9.25401 35.7089 9.8369 35.2346 10.3235C34.7657 10.8102 34.2062 11.1845 33.556 11.4465C32.9059 11.7086 32.1838 11.8396 31.3898 11.8396ZM30.1109 0.160428V11.8396H27.9127V0.160428H30.1109Z" fill="white"/>
<path d="M48 5.70321V6.30481C48 7.18717 47.8828 7.98128 47.6483 8.68717C47.4138 9.3877 47.0808 9.98396 46.6491 10.4759C46.2175 10.9679 45.7032 11.3449 45.1064 11.607C44.5096 11.869 43.8461 12 43.1161 12C42.3967 12 41.7359 11.869 41.1337 11.607C40.5369 11.3449 40.02 10.9679 39.583 10.4759C39.146 9.98396 38.8077 9.3877 38.5679 8.68717C38.3281 7.98128 38.2082 7.18717 38.2082 6.30481V5.70321C38.2082 4.81551 38.3281 4.02139 38.5679 3.32086C38.8077 2.62032 39.1434 2.02406 39.575 1.53209C40.0067 1.03476 40.5209 0.65508 41.1177 0.393048C41.7199 0.131016 42.3807 0 43.1001 0C43.8301 0 44.4936 0.131016 45.0904 0.393048C45.6873 0.65508 46.2015 1.03476 46.6331 1.53209C47.0701 2.02406 47.4058 2.62032 47.6403 3.32086C47.8801 4.02139 48 4.81551 48 5.70321ZM45.7779 6.30481V5.68717C45.7779 5.0508 45.7192 4.49198 45.602 4.0107C45.4848 3.52406 45.3116 3.11497 45.0824 2.78342C44.8533 2.45187 44.5709 2.20321 44.2351 2.03743C43.8994 1.86631 43.5211 1.78075 43.1001 1.78075C42.6738 1.78075 42.2954 1.86631 41.965 2.03743C41.64 2.20321 41.3629 2.45187 41.1337 2.78342C40.9046 3.11497 40.7287 3.52406 40.6062 4.0107C40.4889 4.49198 40.4303 5.0508 40.4303 5.68717V6.30481C40.4303 6.93583 40.4889 7.49465 40.6062 7.98128C40.7287 8.46791 40.9046 8.87968 41.1337 9.21658C41.3682 9.54813 41.6506 9.79947 41.981 9.97059C42.3114 10.1417 42.6898 10.2273 43.1161 10.2273C43.5424 10.2273 43.9207 10.1417 44.2511 9.97059C44.5815 9.79947 44.8586 9.54813 45.0824 9.21658C45.3116 8.87968 45.4848 8.46791 45.602 7.98128C45.7192 7.49465 45.7779 6.93583 45.7779 6.30481Z" fill="white"/>
<path d="M57.4873 7.71077L63.4675 1.73329L66.2647 4.53063L60.2843 10.5081L57.4873 7.71077Z" fill="#FFCE31"/>
<path d="M67.4937 0.862335L67.1375 0.506153C66.4625 -0.168718 65.3749 -0.168718 64.6812 0.506153L63.4624 1.72467L66.2749 4.53663L67.4937 3.31812C68.1687 2.64324 68.1687 1.53721 67.4937 0.862335Z" fill="#ED4C5C"/>
<path d="M62.7092 2.49514L63.478 1.72617L66.2755 4.52313L65.5068 5.29192L62.7092 2.49514Z" fill="#93A2AA"/>
<path d="M63.0007 2.78664L63.7695 2.01785L65.9706 4.21831L65.2015 4.98691L63.0007 2.78664Z" fill="#C7D3D8"/>
<path d="M57.481 7.70477L56.2622 10.8917L57.106 11.7353L60.2935 10.5167L57.481 7.70477Z" fill="#FED0AC"/>
<path d="M56.056 11.4541C55.8873 11.904 56.1123 12.1102 56.5623 11.9415L58.0998 11.3603L56.656 9.91685L56.056 11.4541Z" fill="#87D53A"/>
<path d="M57.4792 7.71885L62.7031 2.49609L63.6312 3.42404L58.4074 8.64679L57.4792 7.71885Z" fill="#FFDF85"/>
<path d="M59.3569 9.58728L64.5808 4.36453L65.5089 5.29248L60.2851 10.5152L59.3569 9.58728Z" fill="#FF8736"/>
<path d="M83.3461 10.107V11.8396H77.5265V10.107H83.3461ZM78.1863 0.160428V11.8396H76V0.160428H78.1863Z" fill="white"/>
<path d="M87.1384 0.160428V11.8396H84.952V0.160428H87.1384Z" fill="white"/>
<path d="M95.5578 8.80749C95.5578 8.58289 95.5233 8.38235 95.4544 8.20588C95.3908 8.02406 95.2716 7.86096 95.0966 7.71658C94.927 7.56685 94.6859 7.42246 94.3732 7.28342C94.0658 7.13904 93.6682 6.9893 93.1806 6.83422C92.64 6.6631 92.1365 6.47059 91.6701 6.25668C91.2036 6.04278 90.7929 5.79412 90.4378 5.5107C90.0879 5.22727 89.815 4.90107 89.6189 4.53209C89.4228 4.15775 89.3247 3.7246 89.3247 3.23262C89.3247 2.75134 89.4254 2.31283 89.6268 1.91711C89.8335 1.52139 90.1251 1.18182 90.5014 0.898396C90.8777 0.609626 91.3202 0.387701 91.8291 0.23262C92.3432 0.0775401 92.9103 0 93.5304 0C94.3891 0 95.1311 0.157754 95.7565 0.473262C96.3872 0.78877 96.8749 1.21658 97.2194 1.75668C97.5639 2.29679 97.7361 2.90374 97.7361 3.57754H95.5578C95.5578 3.2139 95.4809 2.89305 95.3272 2.61497C95.1788 2.3369 94.9509 2.11765 94.6435 1.95722C94.3414 1.79679 93.9598 1.71658 93.4986 1.71658C93.0534 1.71658 92.6824 1.78342 92.3856 1.91711C92.0941 2.0508 91.8741 2.23262 91.7257 2.46257C91.5826 2.69251 91.5111 2.9492 91.5111 3.23262C91.5111 3.44652 91.5614 3.63904 91.6621 3.81016C91.7628 3.97594 91.9139 4.13369 92.1153 4.28342C92.3167 4.42781 92.5658 4.56417 92.8626 4.69251C93.1647 4.81551 93.5145 4.9385 93.912 5.0615C94.5481 5.25401 95.1046 5.46791 95.5816 5.70321C96.0639 5.9385 96.4641 6.20588 96.7821 6.50535C97.1054 6.80481 97.3466 7.14171 97.5056 7.51604C97.6699 7.89037 97.752 8.31551 97.752 8.79144C97.752 9.29412 97.654 9.74332 97.4579 10.139C97.2618 10.5348 96.9809 10.8717 96.6152 11.1497C96.2494 11.4278 95.8095 11.639 95.2954 11.7834C94.7866 11.9278 94.2168 12 93.5861 12C93.0243 12 92.4677 11.9251 91.9165 11.7754C91.3706 11.6203 90.875 11.3904 90.4298 11.0856C89.9846 10.7754 89.6295 10.385 89.3645 9.91444C89.0995 9.4385 88.967 8.88235 88.967 8.24599H91.1612C91.1612 8.61497 91.2195 8.93048 91.3361 9.19251C91.4581 9.4492 91.6277 9.66043 91.845 9.8262C92.0676 9.98663 92.3273 10.1043 92.6241 10.1791C92.9209 10.254 93.2416 10.2914 93.5861 10.2914C94.0313 10.2914 94.397 10.2299 94.6832 10.107C94.9747 9.97861 95.192 9.80214 95.3352 9.57754C95.4836 9.35294 95.5578 9.09626 95.5578 8.80749Z" fill="white"/>
<path d="M104.406 0.160428V11.8396H102.228V0.160428H104.406ZM108 0.160428V1.90107H98.6743V0.160428H108Z" fill="white"/>
</svg>
