<?xml version="1.0" standalone="no"?>
<!DOCTYPE svg PUBLIC "-//W3C//DTD SVG 20010904//EN"
 "http://www.w3.org/TR/2001/REC-SVG-20010904/DTD/svg10.dtd">
<svg version="1.0" xmlns="http://www.w3.org/2000/svg"
 width="260.000000pt" height="260.000000pt" viewBox="0 0 260.000000 260.000000"
 preserveAspectRatio="xMidYMid meet">
<metadata>
Created by potrace 1.14, written by Peter Selinger 2001-2017
</metadata>
<g transform="translate(0.000000,260.000000) scale(0.100000,-0.100000)"
fill="#000000" stroke="none">
<path d="M2049 2587 c-25 -7 -66 -25 -91 -40 -27 -15 -368 -350 -843 -826
l-798 -801 -65 -167 c-174 -457 -252 -668 -252 -687 0 -54 52 -80 112 -57 43
17 113 43 133 51 78 29 154 58 465 177 63 24 139 54 167 66 46 19 156 125 854
822 739 736 805 805 832 864 51 107 44 250 -16 351 -35 60 -169 188 -222 214
-93 45 -190 56 -276 33z"/>
</g>
</svg>
