<?xml version="1.0" standalone="no"?>
<!DOCTYPE svg PUBLIC "-//W3C//DTD SVG 20010904//EN"
 "http://www.w3.org/TR/2001/REC-SVG-20010904/DTD/svg10.dtd">
<svg version="1.0" xmlns="http://www.w3.org/2000/svg"
 width="700.000000pt" height="700.000000pt" viewBox="0 0 700.000000 700.000000"
 preserveAspectRatio="xMidYMid meet">
<metadata>
Created by potrace 1.14, written by Peter Selinger 2001-2017
</metadata>
<g transform="translate(0.000000,700.000000) scale(0.100000,-0.100000)"
fill="#000000" stroke="none">
<path d="M5070 6169 c-82 -20 -234 -92 -290 -136 -32 -26 -448 -435 -803 -790
-83 -84 -157 -153 -162 -153 -6 0 -535 -525 -1177 -1167 -929 -930 -1168
-1175 -1176 -1203 -5 -19 -69 -190 -142 -380 -73 -190 -157 -410 -187 -490
-30 -80 -63 -164 -74 -187 -10 -24 -19 -46 -19 -50 0 -3 -24 -70 -53 -147
-162 -427 -172 -458 -172 -528 0 -60 3 -70 28 -95 25 -26 34 -28 100 -28 79 1
40 -13 697 237 173 66 342 131 375 143 131 51 624 239 684 261 64 23 67 25
1228 1186 640 640 1163 1167 1163 1173 0 5 64 74 143 152 464 462 797 803 819
838 104 166 141 293 137 467 -3 150 -44 283 -124 408 -47 74 -260 294 -345
357 -98 73 -179 110 -304 138 -89 21 -248 18 -346 -6z"/>
</g>
</svg>
