<svg width="36" height="36" viewBox="0 0 36 36" fill="none" xmlns="http://www.w3.org/2000/svg">
<path d="M18 4C10.2688 4 4 10.2688 4 18C4 25.7312 10.2688 32 18 32C25.7312 32 32 25.7312 32 18C32 10.2688 25.7312 4 18 4ZM18 29.625C11.5813 29.625 6.375 24.4187 6.375 18C6.375 11.5813 11.5813 6.375 18 6.375C24.4187 6.375 29.625 11.5813 29.625 18C29.625 24.4187 24.4187 29.625 18 29.625Z" fill="#C5C5C5"/>
<path d="M16.5 12.5C16.5 12.8978 16.658 13.2794 16.9393 13.5607C17.2206 13.842 17.6022 14 18 14C18.3978 14 18.7794 13.842 19.0607 13.5607C19.342 13.2794 19.5 12.8978 19.5 12.5C19.5 12.1022 19.342 11.7206 19.0607 11.4393C18.7794 11.158 18.3978 11 18 11C17.6022 11 17.2206 11.158 16.9393 11.4393C16.658 11.7206 16.5 12.1022 16.5 12.5V12.5ZM18.75 16H17.25C17.1125 16 17 16.1125 17 16.25V24.75C17 24.8875 17.1125 25 17.25 25H18.75C18.8875 25 19 24.8875 19 24.75V16.25C19 16.1125 18.8875 16 18.75 16Z" fill="#C5C5C5"/>
</svg>
