<svg width="90" height="58" viewBox="0 0 90 58" fill="none" xmlns="http://www.w3.org/2000/svg">
<path fill-rule="evenodd" clip-rule="evenodd" d="M86.3214 5.83675C86.26 5.82842 86.1986 5.82017 86.1373 5.81183C76.7099 11.5003 67.2825 17.1887 57.8105 22.9041C67.3056 32.6391 76.7605 42.3329 86.2154 52.0266C86.2674 52.0095 86.3195 51.9923 86.3715 51.9752C86.4299 51.4162 86.5387 50.8573 86.539 50.2984C86.5483 36.136 86.5492 21.9737 86.5365 7.8113C86.536 7.153 86.3963 6.49497 86.3214 5.83675ZM3.75417 52.2682C13.5836 42.4639 23.2863 32.7859 33.0116 23.0854C23.4685 17.0782 13.8984 11.0539 4.31741 5.02277C3.70602 5.83 3.49118 6.68538 3.49163 7.62755C3.49829 20.3709 3.49613 33.1143 3.49622 45.8576C3.49622 47.4263 3.47669 48.9954 3.50819 50.5634C3.5189 51.0997 3.65841 51.6334 3.75417 52.2682ZM84.0489 3.82667C84.0486 3.77601 84.0484 3.72535 84.0482 3.6746C83.5136 3.60493 82.979 3.47439 82.4444 3.47421C57.5287 3.46408 32.6131 3.46524 7.69748 3.46515C7.54438 3.46515 7.39138 3.46515 7.23828 3.46515C7.33476 3.63641 7.44016 3.71414 7.55068 3.78372C19.8941 11.5548 32.2388 19.3237 44.5766 27.1038C44.914 27.3165 45.1407 27.3297 45.4907 27.1181C58.1646 19.4568 70.8463 11.8084 83.5265 4.15752C83.703 4.0511 83.8748 3.93713 84.0489 3.82667ZM35.5501 24.6829C25.6519 34.556 15.7895 44.3936 5.83496 54.3229C6.52232 54.4052 7.16782 54.5499 7.81332 54.5501C32.5167 54.5616 57.22 54.5599 81.9233 54.5598C82.1483 54.5598 82.3779 54.5876 82.5974 54.5524C83.1792 54.4591 83.7567 54.3384 84.3359 54.2286C84.3383 54.1782 84.3406 54.1278 84.343 54.0774C74.6911 44.1814 65.0393 34.2853 55.3771 24.3787C54.939 24.6411 54.5288 24.885 54.1202 25.1315C51.3765 26.7869 48.6308 28.4389 45.8915 30.1013C45.2884 30.4673 44.7123 30.4851 44.1266 30.0848C43.966 29.975 43.7983 29.8757 43.6336 29.772C40.9348 28.0728 38.2358 26.3738 35.5501 24.6829ZM0.000976562 51.181C0.000976562 36.3867 0.000976562 21.5924 0.000976562 6.79809C0.0270775 6.71327 0.0639788 6.63016 0.0775693 6.54345C0.699221 2.56908 3.69912 6.70874e-05 7.72172 6.70874e-05C32.5731 6.70874e-05 57.4245 -0.0002019 82.2758 0.00284662C82.6795 0.00284662 83.0853 0.0258899 83.4866 0.0696452C87.1158 0.465326 89.9985 3.67426 89.9985 7.30971C89.9985 21.7427 89.9986 36.1757 89.9985 50.6088C89.9984 54.6868 86.6913 57.9972 82.5951 57.9977C57.5488 58.0008 32.5025 58.0006 7.45612 57.9987C3.97597 57.9984 0.970761 55.6002 0.204924 52.226C0.126351 51.8801 0.068479 51.5294 0.000976562 51.181Z" fill="#7ED321"/>
</svg>
