<svg width="32" height="32" viewBox="0 0 32 32" fill="none" xmlns="http://www.w3.org/2000/svg">
<path d="M16 6C10.4777 6 6 10.4777 6 16C6 21.5223 10.4777 26 16 26C21.5223 26 26 21.5223 26 16C26 10.4777 21.5223 6 16 6ZM16 24.3036C11.4152 24.3036 7.69643 20.5848 7.69643 16C7.69643 11.4152 11.4152 7.69643 16 7.69643C20.5848 7.69643 24.3036 11.4152 24.3036 16C24.3036 20.5848 20.5848 24.3036 16 24.3036Z" fill="#1F2021"/>
<path d="M15 12.0714C15 12.3556 15.1054 12.6281 15.2929 12.829C15.4804 13.03 15.7348 13.1429 16 13.1429C16.2652 13.1429 16.5196 13.03 16.7071 12.829C16.8946 12.6281 17 12.3556 17 12.0714C17 11.7873 16.8946 11.5147 16.7071 11.3138C16.5196 11.1129 16.2652 11 16 11C15.7348 11 15.4804 11.1129 15.2929 11.3138C15.1054 11.5147 15 11.7873 15 12.0714V12.0714ZM16.5 14.5714H15.5C15.4083 14.5714 15.3333 14.6518 15.3333 14.75V20.8214C15.3333 20.9196 15.4083 21 15.5 21H16.5C16.5917 21 16.6667 20.9196 16.6667 20.8214V14.75C16.6667 14.6518 16.5917 14.5714 16.5 14.5714Z" fill="#1F2021"/>
</svg>
