<svg width="36" height="36" viewBox="0 0 36 36" fill="none" xmlns="http://www.w3.org/2000/svg">
<path d="M33.8698 8.31997L27.9998 2.41997C27.6119 2.03403 27.087 1.81738 26.5398 1.81738C25.9926 1.81738 25.4677 2.03403 25.0798 2.41997L4.26981 23.2L2.36981 31.4C2.30427 31.6997 2.30652 32.0103 2.37639 32.3091C2.44626 32.6079 2.582 32.8873 2.77368 33.1269C2.96536 33.3665 3.20814 33.5602 3.48429 33.694C3.76044 33.8277 4.06298 33.8981 4.36981 33.9C4.51278 33.9144 4.65684 33.9144 4.79981 33.9L13.0898 32L33.8698 11.24C34.2557 10.8521 34.4724 10.3272 34.4724 9.77997C34.4724 9.23279 34.2557 8.70786 33.8698 8.31997ZM12.0898 30.2L4.31981 31.83L6.08981 24.21L21.6598 8.69997L27.6598 14.7L12.0898 30.2ZM28.9998 13.25L22.9998 7.24997L26.4798 3.78997L32.3798 9.78997L28.9998 13.25Z" fill="white"/>
</svg>
